<svg height="600" viewBox="0 0 600 600" width="600" xmlns="http://www.w3.org/2000/svg"><g fill="none" fill-rule="evenodd"><path d="m0 0h600v600h-600z" fill="#950000"/><g fill-rule="nonzero" transform="translate(50.4 132)"><path d="m90.24 336v-116.16h35.742l1.831333 3.546667c4.133334 8.026666 8.246667 16.073333 12.34 24.14l4.086667 8.073333c8.16 16.16 16.4 32.4 24.72 48.72 4.48 8.32 9.36 14.8 14.64 19.44s11.6 7.84 18.96 9.6 16.48 2.64 27.36 2.64h19.2c1.6 0 2.88-.48 3.84-1.44s1.44-2.24 1.44-3.84v-53.28h-15.84c-3.52 0-6.48-.88-8.88-2.64s-5.04-5.04-7.92-9.84c-8-15.04-15.52-28.88-22.56-41.52-2.166154-3.889231-4.392899-7.876923-6.680237-11.963077l-.593763-1.058923.099181-.044825c8.412418-3.78808 15.80582-8.683786 22.180206-14.687118l.594613-.566057c8.48-8.16 14.96-18.08 19.44-29.76s6.72-24.88 6.72-39.6v-26.88c0-15.04-2-28.64-6-40.8s-10.32-22.64-18.96-31.44-19.84-15.44-33.6-19.92-30.4-6.72-49.92-6.72h-132.48v53.28c0 1.6.48 2.88 1.44 3.84s2.24 1.44 3.84 1.44h18.24v272.16c0 1.5.421875 2.71875 1.265625 3.65625l.174375.18375c.96.96 2.24 1.44 3.84 1.44zm0-277.44h44.64c7.04 0 13.04.88 18 2.64s8.88 4.08 11.76 6.96c3.2 3.2 5.52 7.04 6.96 11.52s2.16 9.76 2.16 15.84v31.2c0 8-1.36 14.8-4.08 20.4s-6.96 9.68-12.72 12.24-13.12 3.841-22.08 3.841h-44.64z" fill="#ef4444"/><path d="m479.52 282.72c0-.96-.24-1.84-.72-2.64s-1.2-1.44-2.16-1.92-1.92-.72-2.88-.72h-45.6v-218.88h51.36v-53.28c0-1.6-.48-2.88-1.44-3.84s-2.4-1.44-4.32-1.44h-166.08v53.28c0 1.28.56 2.48 1.68 3.6s2.32 1.68 3.6 1.68h46.08v218.88h-51.36v53.28c0 .64.16 1.28.48 1.92s.72 1.2 1.2 1.68 1.04.88 1.68 1.2 1.28.48 1.92.48h166.56z" fill="#fff"/></g></g></svg>